<svg version="1.2" xmlns="http://www.w3.org/2000/svg" viewBox="0 0 171 63" width="171" height="63"><style>.a{fill:#fff}</style><path fill-rule="evenodd" class="a" d="m79 4c-28.1 0-54.5 7.8-77 21.2 21.6-15.8 48.2-25.2 77-25.2 28.8 0 55.4 9.4 77 25.2-22.5-13.4-48.9-21.2-77-21.2zm-79 26.1h10v23.3h11.5l-3.6 9.6h-17.9zm74.2 32.9h-11.2l-13.5-33h11l8 19.5 7.5-19.5h10.5zm15.5 0h-10.5l12.4-33h10.4zm51.5-33.1l-12.3 33h-10.5l-6.6-18.6-7 18.7h-10.5l12.4-33h10.4l6.6 18.7 7-18.7zm-82.7 33.1h-11l-2-5h-11l-2 5h-11l12.5-33h11zm-15.4-12.4l-3.1-7.3-2.8 7.3zm127.7 12.4h-11l-2-5h-11l-2 5h-11l12.5-33h11zm-15.4-12.4l-3.1-7.3-2.8 7.3z"/></svg>