<svg width="19" height="11" viewBox="0 0 19 11" fill="none" xmlns="http://www.w3.org/2000/svg">
<path d="M18.575 8.70002L10.175 0.275016C10.075 0.175016 9.96667 0.104016 9.85 0.062016C9.73333 0.020016 9.60833 -0.000650622 9.475 1.60392e-05C9.34167 1.60334e-05 9.21667 0.021016 9.1 0.063016C8.98333 0.105016 8.875 0.175683 8.775 0.275016L0.35 8.70002C0.116666 8.93335 -4.03238e-07 9.22502 -4.18537e-07 9.57502C-4.33836e-07 9.92502 0.125 10.225 0.375 10.475C0.625 10.725 0.916666 10.85 1.25 10.85C1.58333 10.85 1.875 10.725 2.125 10.475L9.475 3.12502L16.825 10.475C17.0583 10.7083 17.346 10.825 17.688 10.825C18.03 10.825 18.3257 10.7 18.575 10.45C18.825 10.2 18.95 9.90835 18.95 9.57502C18.95 9.24168 18.825 8.95002 18.575 8.70002Z" fill="black"/>
</svg>
